<svg xmlns="http://www.w3.org/2000/svg" width="136" height="26" viewBox="0 0 136 26" fill="none">
<g clip-path="url(#clip0_2_585)">
<path d="M42.7907 9.00588H46.6369C46.5188 7.95998 46.2321 7.03216 45.7766 6.22243C45.3211 5.4127 44.7391 4.73793 44.0306 4.19811C43.339 3.64142 42.5461 3.21968 41.652 2.9329C40.7748 2.64613 39.8386 2.50274 38.8433 2.50274C37.46 2.50274 36.2117 2.74734 35.0983 3.23655C34.0018 3.72576 33.074 4.40054 32.3148 5.26088C31.5557 6.12122 30.9737 7.13338 30.5689 8.29736C30.164 9.44448 29.9616 10.6928 29.9616 12.0424C29.9616 13.3582 30.164 14.5896 30.5689 15.7368C30.9737 16.867 31.5557 17.8539 32.3148 18.6973C33.074 19.5408 34.0018 20.2071 35.0983 20.6964C36.2117 21.1687 37.46 21.4049 38.8433 21.4049C39.9567 21.4049 40.9773 21.2362 41.9051 20.8988C42.8329 20.5614 43.6426 20.0722 44.3343 19.4311C45.0259 18.7901 45.5826 18.0141 46.0043 17.1032C46.4261 16.1922 46.6875 15.1716 46.7888 14.0414H42.9425C42.7907 15.256 42.369 16.2344 41.6773 16.9767C41.0026 17.7189 40.0579 18.09 38.8433 18.09C37.9492 18.09 37.1901 17.9213 36.5659 17.584C35.9417 17.2297 35.4357 16.7658 35.0477 16.1922C34.6597 15.6187 34.3729 14.9776 34.1873 14.2691C34.0186 13.5437 33.9343 12.8015 33.9343 12.0424C33.9343 11.2495 34.0186 10.4819 34.1873 9.7397C34.3729 8.99744 34.6597 8.33954 35.0477 7.76598C35.4357 7.17555 35.9417 6.71164 36.5659 6.37426C37.1901 6.02 37.9492 5.84287 38.8433 5.84287C39.3325 5.84287 39.7964 5.92722 40.235 6.09591C40.6905 6.24774 41.0953 6.46704 41.4496 6.75382C41.8039 7.0406 42.0991 7.37798 42.3352 7.76598C42.5714 8.1371 42.7232 8.5504 42.7907 9.00588ZM52.3104 14.4716C52.3104 13.9486 52.361 13.4341 52.4622 12.928C52.5634 12.4219 52.7321 11.9749 52.9683 11.5869C53.2213 11.1989 53.5503 10.8868 53.9551 10.6506C54.36 10.3976 54.8661 10.2711 55.4734 10.2711C56.0807 10.2711 56.5868 10.3976 56.9916 10.6506C57.4134 10.8868 57.7423 11.1989 57.9785 11.5869C58.2315 11.9749 58.4086 12.4219 58.5099 12.928C58.6111 13.4341 58.6617 13.9486 58.6617 14.4716C58.6617 14.9945 58.6111 15.509 58.5099 16.0151C58.4086 16.5043 58.2315 16.9514 57.9785 17.3562C57.7423 17.7442 57.4134 18.0563 56.9916 18.2925C56.5868 18.5286 56.0807 18.6467 55.4734 18.6467C54.8661 18.6467 54.36 18.5286 53.9551 18.2925C53.5503 18.0563 53.2213 17.7442 52.9683 17.3562C52.7321 16.9514 52.5634 16.5043 52.4622 16.0151C52.361 15.509 52.3104 14.9945 52.3104 14.4716ZM48.7172 14.4716C48.7172 15.5175 48.8775 16.4621 49.198 17.3056C49.5185 18.1491 49.974 18.8745 50.5644 19.4818C51.1548 20.0722 51.8633 20.5277 52.6899 20.8482C53.5165 21.1687 54.4443 21.329 55.4734 21.329C56.5024 21.329 57.4302 21.1687 58.2568 20.8482C59.1003 20.5277 59.8172 20.0722 60.4077 19.4818C60.9981 18.8745 61.4536 18.1491 61.7741 17.3056C62.0946 16.4621 62.2549 15.5175 62.2549 14.4716C62.2549 13.4257 62.0946 12.481 61.7741 11.6375C61.4536 10.7772 60.9981 10.0518 60.4077 9.46135C59.8172 8.85405 59.1003 8.39015 58.2568 8.06963C57.4302 7.73224 56.5024 7.56355 55.4734 7.56355C54.4443 7.56355 53.5165 7.73224 52.6899 8.06963C51.8633 8.39015 51.1548 8.85405 50.5644 9.46135C49.974 10.0518 49.5185 10.7772 49.198 11.6375C48.8775 12.481 48.7172 13.4257 48.7172 14.4716ZM76.8636 21V7.9178H73.2704V14.7752C73.2704 16.1079 73.0511 17.0694 72.6125 17.6599C72.1739 18.2334 71.4654 18.5202 70.487 18.5202C69.6266 18.5202 69.0278 18.2587 68.6904 17.7358C68.353 17.196 68.1843 16.3862 68.1843 15.3066V7.9178H64.5911V15.9645C64.5911 16.7742 64.6586 17.5165 64.7936 18.1912C64.9454 18.8492 65.1984 19.4143 65.5527 19.8866C65.907 20.3421 66.3877 20.6964 66.995 20.9494C67.6192 21.2024 68.4121 21.329 69.3736 21.329C70.1327 21.329 70.875 21.1603 71.6004 20.8229C72.3257 20.4855 72.9162 19.9372 73.3717 19.1781H73.4476V21H76.8636ZM79.5907 7.9178V21H83.1839V15.1042C83.1839 14.5137 83.2429 13.9655 83.361 13.4594C83.4791 12.9533 83.6731 12.5147 83.943 12.1436C84.2298 11.7556 84.6009 11.4519 85.0564 11.2326C85.5119 11.0133 86.0686 10.9037 86.7265 10.9037C86.9458 10.9037 87.1735 10.9206 87.4097 10.9543C87.6458 10.9712 87.8483 10.9965 88.017 11.0302V7.69007C87.7302 7.60572 87.4687 7.56355 87.2325 7.56355C86.7771 7.56355 86.3385 7.63102 85.9167 7.76598C85.495 7.90093 85.0986 8.09493 84.7274 8.34797C84.3563 8.58414 84.0274 8.87936 83.7406 9.23361C83.4538 9.571 83.2261 9.94213 83.0574 10.347H83.0068V7.9178H79.5907ZM92.2091 16.7489H88.7931C88.8268 17.6261 89.0208 18.3599 89.3751 18.9504C89.7462 19.5239 90.2101 19.9878 90.7668 20.3421C91.3404 20.6964 91.9898 20.9494 92.7152 21.1012C93.4406 21.253 94.1828 21.329 94.942 21.329C95.6842 21.329 96.4096 21.253 97.1181 21.1012C97.8435 20.9663 98.4845 20.7217 99.0412 20.3674C99.5979 20.0131 100.045 19.5492 100.382 18.9757C100.737 18.3852 100.914 17.6599 100.914 16.7995C100.914 16.1922 100.796 15.6861 100.559 15.2813C100.323 14.8595 100.011 14.5137 99.6232 14.2438C99.2352 13.957 98.7882 13.7293 98.2821 13.5606C97.7929 13.3919 97.2868 13.2485 96.7639 13.1304C96.2578 13.0124 95.7601 12.9027 95.2709 12.8015C94.7817 12.7003 94.3431 12.5906 93.9551 12.4725C93.584 12.3376 93.2803 12.1689 93.0442 11.9665C92.808 11.764 92.6899 11.5025 92.6899 11.182C92.6899 10.9121 92.7574 10.7012 92.8923 10.5494C93.0273 10.3807 93.1876 10.2542 93.3731 10.1699C93.5755 10.0855 93.7949 10.0349 94.031 10.018C94.2672 9.9843 94.4865 9.96743 94.6889 9.96743C95.33 9.96743 95.8867 10.094 96.359 10.347C96.8313 10.5832 97.0928 11.0471 97.1434 11.7387H100.559C100.492 10.929 100.281 10.2626 99.9269 9.7397C99.5895 9.19988 99.1593 8.76971 98.6364 8.44919C98.1134 8.12867 97.5145 7.90093 96.8398 7.76598C96.1819 7.63102 95.4987 7.56355 94.7901 7.56355C94.0816 7.56355 93.39 7.63102 92.7152 7.76598C92.0404 7.88406 91.4331 8.10337 90.8933 8.42388C90.3535 8.72753 89.9149 9.14927 89.5775 9.68909C89.257 10.2289 89.0967 10.9206 89.0967 11.764C89.0967 12.3376 89.2148 12.8268 89.451 13.2317C89.6872 13.6197 89.9992 13.9486 90.3872 14.2185C90.7752 14.4716 91.2138 14.6824 91.703 14.8511C92.2091 15.0029 92.7236 15.1379 93.2466 15.256C94.5287 15.5259 95.524 15.7958 96.2325 16.0657C96.9579 16.3356 97.3205 16.7405 97.3205 17.2803C97.3205 17.6008 97.2446 17.8707 97.0928 18.09C96.941 18.2925 96.747 18.4612 96.5108 18.5961C96.2915 18.7142 96.0385 18.807 95.7517 18.8745C95.4818 18.9251 95.2203 18.9504 94.9673 18.9504C94.613 18.9504 94.2672 18.9082 93.9298 18.8239C93.6093 18.7395 93.3225 18.613 93.0695 18.4443C92.8164 18.2587 92.6056 18.031 92.4369 17.7611C92.285 17.4743 92.2091 17.1369 92.2091 16.7489ZM111.823 13.0545H105.977C105.994 12.8015 106.045 12.5147 106.129 12.1942C106.23 11.8737 106.391 11.57 106.61 11.2832C106.846 10.9965 107.15 10.7603 107.521 10.5747C107.909 10.3723 108.39 10.2711 108.963 10.2711C109.84 10.2711 110.49 10.5073 110.912 10.9796C111.35 11.4519 111.654 12.1436 111.823 13.0545ZM105.977 15.3319H115.416C115.483 14.3197 115.399 13.3497 115.163 12.4219C114.927 11.4941 114.539 10.6675 113.999 9.94213C113.476 9.21675 112.801 8.64319 111.974 8.22145C111.148 7.78285 110.178 7.56355 109.064 7.56355C108.069 7.56355 107.158 7.74067 106.332 8.09493C105.522 8.44919 104.822 8.9384 104.231 9.56257C103.641 10.1699 103.185 10.8952 102.865 11.7387C102.544 12.5822 102.384 13.4931 102.384 14.4716C102.384 15.4837 102.536 16.4115 102.84 17.255C103.16 18.0985 103.607 18.8239 104.181 19.4311C104.754 20.0384 105.454 20.5108 106.281 20.8482C107.108 21.1687 108.035 21.329 109.064 21.329C110.549 21.329 111.814 20.9916 112.86 20.3168C113.906 19.642 114.682 18.5202 115.188 16.9514H112.025C111.907 17.3562 111.586 17.7442 111.063 18.1153C110.54 18.4696 109.916 18.6467 109.191 18.6467C108.179 18.6467 107.403 18.3852 106.863 17.8623C106.323 17.3393 106.028 16.4959 105.977 15.3319ZM117.648 2.9329V21H121.241V2.9329H117.648ZM130.523 22.6195L135.989 7.9178H132.269L129.41 16.8754H129.359L126.398 7.9178H122.578L127.158 20.1903C127.259 20.4433 127.309 20.7132 127.309 21C127.309 21.388 127.191 21.7423 126.955 22.0628C126.736 22.3833 126.39 22.5689 125.918 22.6195C125.563 22.6363 125.209 22.6279 124.855 22.5942C124.501 22.5604 124.155 22.5267 123.817 22.4929V25.4535C124.189 25.4873 124.551 25.5126 124.906 25.5294C125.277 25.5632 125.648 25.58 126.019 25.58C127.25 25.58 128.212 25.3523 128.904 24.8968C129.595 24.4414 130.135 23.6822 130.523 22.6195Z" fill="#333B4A"/>
<path d="M26 12L10.25 22.3923L10.25 1.60769L26 12Z" fill="#017CFF"/>
<path d="M17 12L1.25 22.3923L1.25 1.60769L17 12Z" fill="#E48D8B"/>
</g>
<defs>
<clipPath id="clip0_2_585">
<rect width="136" height="26" fill="white"/>
</clipPath>
</defs>
</svg>